PathFileType	4	(X/Y/Z)	S01_0008_Gait_markers.trc
DataRate	CameraRate	NumFrames	NumMarkers	Units	OrigDataRate	OrigDataStartFrame	OrigNumFrames
250.000000	250.000000	4	54	mm	250.000000	212	340
Frame#	Time	HEAD_ANT			R_HEAD			L_HEAD			C7			R_BACK			L_BACK			STERNUM			R_ACROMION			R_HUM_PROX			R_HUM_ANT			R_HUM_POST			R_ELBOW_LAT			R_ELBOW_MED			R_FOREARM			R_WIRST_LAT			R_WRITS_MED			R_HAND			L_ACROMION			L_HUM_PROX			L_HUM_ANT			L_HUM_POST			L_ELBOW_LAT			L_ELBOW_MED			L_FOREARM			L_WRIST_LAT			L_WIRST_MED			L_HAND			R_ILIAC			SACRUM			L_ILIAC			R_GTROCH			R_THIGH__1			R_THIGH_2			R_THIGH_3			R_THIGH_4			R_SHANK_1			R_SHANK_2			R_SHANK_3			R_SHANK_4			R_HEEL			R_FOOT_LAT			R_FOOT_MED			L_GTROCH			L_THIGH_1			L_THIGH_2			L_THIGH_3			L_THIGH_4			L_SHANK_1			L_SHANK_2			L_SHANK_3			L_SHANK_4			L_HEEL			L_FOOT_LAT			L_FOOT_MED			
		X1	Y1	Z1	X2	Y2	Z2	X3	Y3	Z3	X4	Y4	Z4	X5	Y5	Z5	X6	Y6	Z6	X7	Y7	Z7	X8	Y8	Z8	X9	Y9	Z9	X10	Y10	Z10	X11	Y11	Z11	X12	Y12	Z12	X13	Y13	Z13	X14	Y14	Z14	X15	Y15	Z15	X16	Y16	Z16	X17	Y17	Z17	X18	Y18	Z18	X19	Y19	Z19	X20	Y20	Z20	X21	Y21	Z21	X22	Y22	Z22	X23	Y23	Z23	X24	Y24	Z24	X25	Y25	Z25	X26	Y26	Z26	X27	Y27	Z27	X28	Y28	Z28	X29	Y29	Z29	X30	Y30	Z30	X31	Y31	Z31	X32	Y32	Z32	X33	Y33	Z33	X34	Y34	Z34	X35	Y35	Z35	X36	Y36	Z36	X37	Y37	Z37	X38	Y38	Z38	X39	Y39	Z39	X40	Y40	Z40	X41	Y41	Z41	X42	Y42	Z42	X43	Y43	Z43	X44	Y44	Z44	X45	Y45	Z45	X46	Y46	Z46	X47	Y47	Z47	X48	Y48	Z48	X49	Y49	Z49	X50	Y50	Z50	X51	Y51	Z51	X52	Y52	Z52	X53	Y53	Z53	X54	Y54	Z54	

213	0.848	1358.581420898438	1745.153564453125	-379.9028320312496	1297.993774414062	1695.85791015625	-303.1158752441402	1303.373046875	1693.532470703125	-450.7423400878902	1166.91357421875	1520.788696289062	-374.6420288085934	1097.862182617188	1324.754638671875	-303.3868713378903	1099.406860351562	1323.779296875	-440.8421325683591	1350.603393554688	1362.8779296875	-369.8781433105466	1246.81396484375	1476.355590820312	-200.3901519775387	1219.487426757812	1314.634033203125	-109.162559509277	1283.810668945312	1231.154418945312	-112.1184387207029	1163.599975585938	1228.869750976562	-94.04588317871067	1211.468872070312	1124.373046875	-93.38311004638646	1187.491943359375	1120.046264648438	-172.7195739746091	1314.841674804688	942.1174926757812	-94.93368530273416	1351.781127929688	876.0335083007812	-136.3390808105467	1286.27734375	852.9028930664062	-94.52437591552716	1356.54443359375	787.4491577148438	-82.38226318359358	1247.578491210938	1473.750610351563	-540.5778808593747	1221.839599609375	1304.133422851563	-629.8364257812497	1283.515014648438	1222.912109375	-629.822082519531	1161.4599609375	1226.421875	-650.8578491210935	1219.402221679688	1119.555908203125	-655.3009033203123	1168.027465820312	1118.059692382813	-596.6540527343748	1318.663696289062	943.4913330078126	-645.390686035156	1355.3828125	883.9890747070314	-596.320861816406	1302.221435546875	861.3397216796876	-652.265686035156	1378.274658203125	803.4719238281251	-644.2225341796873	1238.967407226562	1067.5625	-196.5066070556638	1122.029418945312	1043.668212890625	-376.2370605468748	1255.37060546875	1072.271118164063	-542.5273437499998	1186.431030273438	920.0626831054688	-189.660934448242	1239.623168945312	641.8606567382812	-193.4042053222655	1294.460083007812	659.408447265625	-180.527633666992	1305.822021484375	555.409912109375	-202.5757598876952	1240.069946289062	560.5203857421875	-206.0688934326171	1121.4423828125	406.4750366210938	-201.3102722167968	1146.53173828125	352.9531860351563	-212.4288177490234	1085.078735351562	295.6804809570313	-232.0337371826171	1044.384643554688	344.7169799804688	-225.0775604248046	880.7794799804688	239.0279083251954	-320.0845336914062	937.7125854492188	92.31404113769537	-228.8388519287109	990.8296508789062	60.99725341796882	-310.1606750488281	1232.033325195312	961.0906982421876	-551.0883178710935	1366.385864257812	681.5880126953126	-514.7789306640624	1313.578857421875	690.6947021484376	-539.4788208007811	1311.0849609375	589.1932983398439	-503.6742553710936	1371.662719726562	603.4451904296876	-486.7088012695311	1342.866577148438	325.2058105468751	-476.6121520996093	1285.745727539062	306.2050781250001	-485.5718688964843	1276.783569335938	221.3904113769532	-466.8424682617187	1338.24658203125	225.5777435302736	-449.2439575195312	1215.795776367188	41.63850784301766	-392.6325378417969	1396.55126953125	20.5551700592042	-451.0773010253906	1425.084838867188	27.59816551208504	-339.5226745605469	
214	0.852	1364.131591796875	1746.10009765625	-380.0478210449215	1303.411743164062	1696.855102539062	-303.3190917968746	1308.80517578125	1694.629272460938	-450.776214599609	1172.384399414062	1521.74267578125	-374.9783020019528	1103.305541992188	1325.486938476562	-304.2283020019528	1104.988891601562	1324.776123046875	-441.022033691406	1355.96875	1363.882690429688	-369.9629211425778	1251.920043945312	1477.448120117188	-200.3831634521481	1224.158081054688	1315.776977539062	-109.268859863281	1288.513671875	1232.114624023438	-112.127876281738	1168.156494140625	1230.106323242188	-94.21912384033176	1215.968383789062	1125.864501953125	-93.22933197021459	1188.8603515625	1122.133056640625	-171.3861846923826	1318.457641601562	942.7791137695312	-94.95827484130838	1355.1669921875	876.61962890625	-136.1945343017576	1289.80126953125	853.8673095703125	-94.245651245117	1359.639526367188	788.0606079101562	-81.82595062255842	1252.848266601562	1474.906616210938	-540.6517333984372	1227.661010742188	1305.139526367188	-630.0927124023434	1289.447509765625	1224.504150390625	-630.7326049804685	1167.368286132812	1227.313842773438	-650.7272949218748	1225.522094726562	1120.854248046875	-655.6251220703123	1174.193603515625	1118.834838867188	-597.0308837890623	1325.870239257812	944.9608764648439	-645.3754272460935	1362.847900390625	885.7641601562501	-596.2984619140623	1309.935424804688	863.0051879882814	-652.8744506835935	1386.149047851562	805.3191528320314	-644.0574951171873	1244.556396484375	1068.861328125	-196.5965423583982	1127.387817382812	1044.839599609375	-376.3024291992185	1260.8203125	1073.566650390625	-542.551086425781	1192.2724609375	921.1897583007812	-189.6582794189451	1248.20751953125	643.0254516601562	-192.9731292724608	1303.075317382812	661.1575927734375	-179.9645233154295	1315.23828125	556.8193359375	-202.6465301513671	1249.225341796875	561.435546875	-205.9770202636718	1131.451416015625	406.7840881347657	-201.4487152099609	1157.195556640625	353.3941345214844	-212.3293304443359	1096.189208984375	295.4260864257813	-231.4438476562499	1054.9580078125	344.5214233398438	-224.9485778808593	892.3536987304688	236.4248352050782	-320.2301025390624	952.3407592773438	91.40666961669928	-227.850112915039	1006.082214355469	60.47076416015632	-308.9691467285156	1237.131591796875	961.6466674804689	-550.8922729492185	1368.986083984375	681.2865600585939	-515.0655517578124	1316.480834960938	690.9418945312501	-539.6551513671874	1312.557250976562	589.3061523437501	-503.7222595214843	1373.749267578125	603.2379760742189	-487.1126403808593	1343.358764648438	325.2986755371095	-476.7821350097656	1286.351928710938	306.4694824218751	-485.6094970703124	1277.118774414062	221.6245880126954	-466.8706970214843	1338.639038085938	225.6411895751954	-449.4214172363281	1215.843505859375	41.92533493042001	-392.6444091796875	1396.5361328125	20.53753852844248	-451.1371459960938	1425.157592773438	27.62517356872566	-339.6930541992188	
215	0.856	1369.51171875	1747.04052734375	-380.084320068359	1308.264282226562	1697.744995117188	-304.0704956054684	1314.39111328125	1695.571899414062	-451.0093994140621	1177.877563476562	1522.660766601562	-375.2502746582028	1108.809692382812	1326.355346679688	-304.6863708496091	1110.280639648438	1325.83447265625	-441.4961242675778	1361.371215820312	1364.948974609375	-370.1429443359372	1257.065063476562	1478.574340820312	-200.6193847656247	1228.8447265625	1316.874389648438	-109.4429626464841	1293.019653320312	1233.147338867188	-111.9558639526364	1172.761108398438	1231.392944335938	-94.61419677734348	1220.130004882812	1126.914672851562	-93.26119232177709	1196.104858398438	1122.4375	-172.7673797607419	1322.632934570312	944.0256958007812	-94.67150878906229	1358.536254882812	877.0943603515625	-135.9785766601561	1293.123413085938	854.6821899414062	-93.77578735351544	1362.534912109375	788.5601196289062	-81.68211364746077	1258.34619140625	1475.914428710938	-540.7582397460934	1233.477416992188	1306.361694335938	-630.4108276367184	1295.392333984375	1225.615600585938	-631.0156249999998	1173.3291015625	1228.152465820313	-650.787902832031	1231.78466796875	1121.824951171875	-655.8361816406248	1180.751953125	1119.664306640625	-597.643371582031	1333.080810546875	946.5703735351564	-645.2727050781248	1370.193359375	887.5560302734376	-596.2677001953123	1317.464721679688	864.6367187500001	-652.692932128906	1394.005004882812	807.2493896484376	-643.8806152343748	1250.506225585938	1070.223266601562	-197.0702514648435	1132.650756835938	1046.036254882812	-376.5411071777341	1264.649658203125	1074.126342773438	-541.9028320312498	1198.241455078125	922.252197265625	-189.6152496337889	1256.827270507812	644.1463623046875	-192.8266296386717	1311.522338867188	662.466796875	-180.6255645751952	1324.245971679688	558.2799682617188	-202.9138946533202	1258.337768554688	562.4215087890625	-205.8853454589843	1141.650268554688	406.8525085449219	-201.8271179199218	1167.8427734375	353.7307739257813	-212.2167205810546	1107.917846679688	295.1481323242188	-231.2619018554687	1066.141235351562	343.5894165039063	-225.6835937499999	903.8748779296875	233.2554473876954	-320.0181579589843	967.179443359375	90.45713043212896	-226.9490356445312	1021.432678222656	60.02952575683601	-307.8707580566406	1241.731811523438	962.2066650390626	-550.9853515624998	1371.687133789062	681.0335083007814	-515.2122802734374	1318.984252929688	691.0955200195314	-539.8764038085936	1314.588745117188	589.5097656250001	-503.7153930664061	1375.616821289062	602.8232421875001	-487.1987915039061	1343.817138671875	325.3865051269532	-476.8825378417968	1286.8603515625	306.7366333007814	-485.6293640136718	1277.299194335938	221.9469757080079	-466.8035888671874	1338.981689453125	225.6818084716798	-449.5873107910156	1215.947387695312	42.11630249023446	-392.6448669433594	1396.598266601562	20.50930213928233	-451.1507568359375	1425.236328125	27.65024375915535	-339.75244140625	
216	0.86	1375.006591796875	1747.94921875	-380.1336669921871	1313.727661132812	1698.669311523438	-304.0711059570309	1319.625610351562	1696.527221679688	-451.0549011230465	1183.350463867188	1523.858032226562	-375.3815002441403	1114.169555664062	1327.109008789062	-305.1742858886716	1115.783447265625	1326.717041015625	-441.8711853027341	1366.774780273438	1365.848510742188	-370.2329406738278	1262.205932617188	1479.553466796875	-200.7799835205075	1233.442993164062	1318.006958007812	-109.5001144409177	1297.487548828125	1234.08837890625	-111.6929855346677	1177.271728515625	1232.4736328125	-94.80763244628879	1224.357421875	1128.123168945312	-93.18009948730443	1197.316162109375	1124.483520507812	-171.4634094238279	1326.631225585938	945.0927124023438	-94.92583465576151	1361.950927734375	877.6770629882812	-135.7323150634764	1296.501220703125	855.7137451171875	-93.22055053710919	1365.626098632812	789.2014770507812	-81.14698791503889	1264.126098632812	1477.149658203125	-540.8890991210934	1239.33544921875	1307.279296875	-630.6400146484372	1301.318969726562	1226.703735351563	-630.790100097656	1179.239501953125	1229.082153320313	-651.1821289062498	1237.9375	1122.98095703125	-656.267639160156	1186.91357421875	1120.55126953125	-597.9408569335935	1340.253173828125	948.1845092773439	-645.204650878906	1377.514892578125	889.3270263671876	-596.085021972656	1324.934692382812	865.8366699218751	-651.8161621093748	1401.9248046875	809.3121337890626	-644.1454467773435	1255.450317382812	1071.569458007812	-197.6024169921873	1137.99609375	1047.118408203125	-376.6851806640623	1270.005493164062	1075.334594726563	-541.8105468749998	1204.182373046875	923.4673461914062	-189.5625915527342	1265.472534179688	645.0789184570312	-192.8109130859374	1319.986328125	663.8989868164062	-180.3582916259764	1333.616943359375	560.065185546875	-203.0814514160155	1267.575805664062	563.4376831054688	-205.7730102539061	1151.886474609375	407.1454162597657	-201.7586975097655	1178.602783203125	354.0514831542969	-212.1055297851562	1119.2783203125	294.5233459472657	-231.9279479980468	1077.07080078125	342.9160461425782	-225.6876068115234	915.6085815429688	230.008026123047	-320.1433410644531	982.234375	89.26206207275396	-226.0620727539062	1037.078735351562	59.4492378234864	-306.8028259277344	1246.03955078125	962.7231445312501	-551.1906127929685	1374.359252929688	680.7011718750001	-515.4029541015624	1321.481567382812	690.7814331054689	-539.1688842773436	1316.692016601562	589.5817871093751	-503.6544799804686	1377.90283203125	602.5399780273439	-487.249298095703	1344.294799804688	325.4703979492189	-477.0018005371093	1287.188598632812	306.9996337890626	-485.5808715820312	1277.248291015625	222.5405426025392	-466.9531555175781	1339.65380859375	225.5003204345704	-449.3571472167968	1216.026123046875	42.38144683837899	-392.5443115234375	1396.598266601562	20.4938907623292	-451.127685546875	1425.309692382812	27.70845031738289	-340.2384033203125	
